<?xml version="1.0" standalone="no"?>
<!DOCTYPE svg PUBLIC "-//W3C//DTD SVG 1.1//EN" "http://www.w3.org/Graphics/SVG/1.1/DTD/svg11.dtd">
<svg xmlns="http://www.w3.org/2000/svg" id="Layer_1" data-name="Layer 1" viewBox="0 0 262.6 91.52" width="262.6000061035156" height="91.5199966430664"><defs><style>.cls-1{opacity:0.5;}.cls-2{fill:#b17d58;}.cls-3{fill:#2a4846;}.cls-4{fill:#fff;}</style></defs><g class="cls-1"><path class="cls-2" d="M131.3,91.52a.38.38,0,0,1-.3-.16L89.69,34.74a.38.38,0,0,1,0-.46.37.37,0,0,1,.45-.09l21,10.82a.37.37,0,0,1,.17.18L131.64,91a.38.38,0,0,1-.15.48A.41.41,0,0,1,131.3,91.52ZM91.22,35.58,129.54,88.1,110.69,45.62Z"/><path class="cls-2" d="M131.3,91.52A.38.38,0,0,1,131,91l20.32-45.8a.49.49,0,0,1,.17-.18l21-10.82a.38.38,0,0,1,.46.09.36.36,0,0,1,0,.46L131.6,91.36A.37.37,0,0,1,131.3,91.52Zm20.61-45.9L133.06,88.1l38.32-52.52Z"/><path class="cls-2" d="M151.62,45.72H111a.37.37,0,0,1-.31-.17.39.39,0,0,1,0-.36l8.18-17.3-12.63-6.32-16,13.24a.38.38,0,0,1-.53-.05.39.39,0,0,1,0-.53L105.9,20.84a.38.38,0,0,1,.41,0l13.17,6.59a.37.37,0,0,1,.18.49L111.57,45H151L143.1,28a.35.35,0,0,1,.16-.48l12.65-6.7a.36.36,0,0,1,.41,0l16.53,13.39a.38.38,0,0,1,.05.53.37.37,0,0,1-.52.05L156,21.57,143.92,28l8,17.2a.38.38,0,0,1,0,.36A.4.4,0,0,1,151.62,45.72Z"/><path class="cls-2" d="M143.43,28.2h0l-24.11-.11a.37.37,0,0,1-.38-.37.41.41,0,0,1,.38-.37l24.12.1a.38.38,0,0,1,0,.75Z"/><path class="cls-2" d="M156.09,21.5l-.13,0L143.37,17H118.69l-12.42,4.44a.37.37,0,0,1-.48-.23.36.36,0,0,1,.23-.47l12.48-4.46.13,0h24.8l.13,0,12.65,4.46a.37.37,0,0,1-.12.72Z"/></g><path class="cls-3" d="M9.56,27.6a20.42,20.42,0,0,1,8.2,1.67A21.44,21.44,0,0,1,29.05,40.56a21,21,0,0,1,0,16.42A21.38,21.38,0,0,1,17.76,68.26a20.25,20.25,0,0,1-8.2,1.67H0V27.6ZM23.09,48.77A13.36,13.36,0,0,0,22,43.48a13.49,13.49,0,0,0-7.18-7.19,13.39,13.39,0,0,0-5.29-1H7.63V62.36H9.56a13.26,13.26,0,0,0,9.58-4A14,14,0,0,0,22,54.06,13.4,13.4,0,0,0,23.09,48.77Z"/><path class="cls-3" d="M241.44,27.48a20.46,20.46,0,0,1,8.21,1.66,21.53,21.53,0,0,1,11.29,11.29,21.13,21.13,0,0,1,0,16.42,21.53,21.53,0,0,1-11.29,11.29,20.46,20.46,0,0,1-8.21,1.66h-9.56V27.48ZM255,48.64a13.19,13.19,0,0,0-1.06-5.29,13.34,13.34,0,0,0-7.18-7.18,13.19,13.19,0,0,0-5.29-1.06h-1.92V62.24h1.92a13.37,13.37,0,0,0,9.59-4,13.78,13.78,0,0,0,2.88-4.33A13.19,13.19,0,0,0,255,48.64Z"/><path class="cls-3" d="M44.7,27.6V69.93H37.07V27.6Z"/><path class="cls-3" d="M70.54,28.82,76.6,39.28q3,5.13,5.94,10.16l5.9,10.13q2.94,5.1,6,10.36H85.55L82.73,65H58.36L57,67.11H48.16Zm7.83,28.54L70.54,44l-7.82,13.4Z"/><path class="cls-3" d="M135.57,29.66V69.93h-7.63V51.08L124.74,55l-3.52,4.3q-1.78,2.18-3.52,4.32c-1.15,1.44-2.23,2.77-3.26,4L100.88,51.08q0,11.72,0,23.43L93.25,61.15V29.66l21.16,25.91Z"/><path class="cls-3" d="M163.18,27.48a20.67,20.67,0,0,1,8.29,1.66,21.27,21.27,0,0,1,6.71,4.56,22,22,0,0,1,4.53,6.73,21,21,0,0,1,0,16.42,22,22,0,0,1-4.53,6.73,21.27,21.27,0,0,1-6.71,4.56,21.36,21.36,0,0,1-16.51,0,21.51,21.51,0,0,1-11.3-11.29,21,21,0,0,1,0-16.42A21.51,21.51,0,0,1,155,29.14,20.5,20.5,0,0,1,163.18,27.48Zm13.57,21.16a13.37,13.37,0,0,0-4-9.59,13.78,13.78,0,0,0-4.33-2.88,13.73,13.73,0,0,0-10.58,0,13.34,13.34,0,0,0-7.18,7.18,13.73,13.73,0,0,0,0,10.58,13.34,13.34,0,0,0,7.18,7.18,13.73,13.73,0,0,0,10.58,0,13.78,13.78,0,0,0,4.33-2.88,13.37,13.37,0,0,0,4-9.59Z"/><path class="cls-3" d="M225.29,29.66V68.52l-27-23.09v24.5h-7.63V29l27,23.08V38.83Z"/><path class="cls-4" d="M121.09,20.2H119v-.52h4.79v.52h-2.11v5.64h-.57Z"/><path class="cls-4" d="M129.07,19.68h.57v2.71h3.46V19.68h.57v6.16h-.57V22.92h-3.46v2.92h-.57Z"/><path class="cls-4" d="M139.71,19.68h3.78v.52h-3.2v2.19h3v.53h-3v2.4h3.34v.52h-3.92Z"/><path class="cls-2" d="M65.39,77h4.94a9.07,9.07,0,0,1,2.63.34,7,7,0,0,1,2,.91,5.76,5.76,0,0,1,1.38,1.31,7.52,7.52,0,0,1,.87,1.52,8.07,8.07,0,0,1,.46,1.55,8.62,8.62,0,0,1,.14,1.44,7.15,7.15,0,0,1-.5,2.63A6.76,6.76,0,0,1,75.79,89a7.43,7.43,0,0,1-2.43,1.59,8.74,8.74,0,0,1-3.35.6H65.39Zm1.92,12.35h2.42A8,8,0,0,0,72,89,5.69,5.69,0,0,0,74,88a4.82,4.82,0,0,0,1.3-1.65,5.24,5.24,0,0,0,.48-2.31,7.33,7.33,0,0,0-.22-1.59,5,5,0,0,0-.83-1.73A5.15,5.15,0,0,0,73,79.35a6.11,6.11,0,0,0-2.8-.57H67.31Z"/><path class="cls-2" d="M91,91.5a7.64,7.64,0,0,1-3-.57,6.85,6.85,0,0,1-2.32-1.57A7,7,0,0,1,84.2,87a8.11,8.11,0,0,1,0-5.87,7,7,0,0,1,1.52-2.36A6.85,6.85,0,0,1,88,77.2a8.07,8.07,0,0,1,6,0,6.79,6.79,0,0,1,2.33,1.57,7,7,0,0,1,1.52,2.36,8.11,8.11,0,0,1,0,5.87,7,7,0,0,1-1.52,2.36A6.79,6.79,0,0,1,94,90.93,7.61,7.61,0,0,1,91,91.5Zm0-1.8a5.18,5.18,0,0,0,2.2-.45A5,5,0,0,0,94.9,88,5.14,5.14,0,0,0,96,86.25a6.08,6.08,0,0,0,.38-2.19A6.15,6.15,0,0,0,96,81.87a5.33,5.33,0,0,0-1.08-1.79A5.24,5.24,0,0,0,91,78.42a5.25,5.25,0,0,0-2.2.46,5.36,5.36,0,0,0-1.68,1.2,5.67,5.67,0,0,0-1.08,1.79,6.38,6.38,0,0,0-.37,2.19,6.3,6.3,0,0,0,.37,2.19A5.46,5.46,0,0,0,87.14,88,5.15,5.15,0,0,0,91,89.7Z"/><path class="cls-2" d="M105.16,77h2.52l7.8,11.63h0V77h1.92V91.14H115L107.12,79.5h0V91.14h-1.92Z"/><path class="cls-2" d="M144.19,77h4.92a6.26,6.26,0,0,1,1.71.22,3.82,3.82,0,0,1,1.36.65,3,3,0,0,1,.9,1.1,3.45,3.45,0,0,1,.33,1.56,2.89,2.89,0,0,1-.68,2A3.89,3.89,0,0,1,151,83.64v0a3.07,3.07,0,0,1,1.2.33,3.44,3.44,0,0,1,1,.76,3.84,3.84,0,0,1,.65,1.09A3.71,3.71,0,0,1,154,87.2a3.51,3.51,0,0,1-.39,1.69,3.61,3.61,0,0,1-1.07,1.23,4.73,4.73,0,0,1-1.58.76,6.74,6.74,0,0,1-1.94.26h-4.86Zm1.92,5.87h2.62a4.2,4.2,0,0,0,1-.11,2.14,2.14,0,0,0,.84-.37,1.82,1.82,0,0,0,.57-.66,2.06,2.06,0,0,0,.21-1,2.18,2.18,0,0,0-.54-1.46,2.15,2.15,0,0,0-1.7-.61h-3Zm0,6.6h2.82a5.83,5.83,0,0,0,1-.09,3,3,0,0,0,1-.36,2.36,2.36,0,0,0,.78-.73,2.1,2.1,0,0,0,.32-1.22,2.23,2.23,0,0,0-.82-1.89,3.57,3.57,0,0,0-2.22-.63h-2.84Z"/><path class="cls-2" d="M167.29,91.5a7.61,7.61,0,0,1-3-.57A6.79,6.79,0,0,1,162,89.36,7,7,0,0,1,160.46,87a8.11,8.11,0,0,1,0-5.87A7,7,0,0,1,162,78.77a6.79,6.79,0,0,1,2.33-1.57,8.07,8.07,0,0,1,6,0,7,7,0,0,1,2.33,1.57,7.31,7.31,0,0,1,1.52,2.36,8.11,8.11,0,0,1,0,5.87,7.31,7.31,0,0,1-1.52,2.36,7,7,0,0,1-2.33,1.57A7.64,7.64,0,0,1,167.29,91.5Zm0-1.8A5.15,5.15,0,0,0,171.17,88a5.46,5.46,0,0,0,1.08-1.79,6.3,6.3,0,0,0,.38-2.19,6.38,6.38,0,0,0-.38-2.19,5.67,5.67,0,0,0-1.08-1.79,5.36,5.36,0,0,0-1.68-1.2,5.25,5.25,0,0,0-2.2-.46,5.24,5.24,0,0,0-3.88,1.66,5.33,5.33,0,0,0-1.08,1.79,6.38,6.38,0,0,0-.38,2.19,6.3,6.3,0,0,0,.38,2.19A5.14,5.14,0,0,0,163.41,88a5,5,0,0,0,1.68,1.21A5.18,5.18,0,0,0,167.29,89.7Z"/><path class="cls-2" d="M181.42,77h1.92V89.34h6.5v1.8h-8.42Z"/><path class="cls-2" d="M195.8,77h1.92V91.14H195.8Z"/><path class="cls-3" d="M90.23,15.49a3.45,3.45,0,0,0-1.66-.05,3.93,3.93,0,0,0-1.53.68,4.59,4.59,0,0,0-1.27,1.42,4.34,4.34,0,0,0-.51,1.7,4.69,4.69,0,0,0,.19,1.81,5.68,5.68,0,0,0,.89,1.75,5.24,5.24,0,0,0,1.34,1.28,4.3,4.3,0,0,0,1.61.68,4.18,4.18,0,0,0,1.76,0,4.63,4.63,0,0,0,1.76-.83A3.83,3.83,0,0,0,94,22.47a3.73,3.73,0,0,0,.36-1.76h1.75a5,5,0,0,1-.07.72,4.7,4.7,0,0,1-.31,1.11A6.49,6.49,0,0,1,95,23.86a5.53,5.53,0,0,1-1.33,1.31,5.82,5.82,0,0,1-2.42,1.11,6.27,6.27,0,0,1-2.44,0,6.52,6.52,0,0,1-2.21-.88,6.42,6.42,0,0,1-1.7-1.58,7.14,7.14,0,0,1-1.17-2.36,6.14,6.14,0,0,1-.19-2.43,5.69,5.69,0,0,1,.81-2.28,6.71,6.71,0,0,1,1.78-1.92,6.26,6.26,0,0,1,2.18-1,4.34,4.34,0,0,1,2.37,0Z"/><path class="cls-3" d="M107.77,17.31a6.39,6.39,0,0,1-2.56.53,6,6,0,0,1-2.36-.47,6.22,6.22,0,0,1-2-1.37,6.61,6.61,0,0,1-1.4-2.15,6.72,6.72,0,0,1-.54-2.52A6.43,6.43,0,0,1,99.35,9a5.92,5.92,0,0,1,1.33-2,7,7,0,0,1,4.73-2,6,6,0,0,1,2.37.47,6.32,6.32,0,0,1,2,1.38A6.58,6.58,0,0,1,111.17,9a6.81,6.81,0,0,1,.53,2.51,6,6,0,0,1-.43,2.37,5.77,5.77,0,0,1-1.33,2A6.46,6.46,0,0,1,107.77,17.31Zm-.6-1.42a4.41,4.41,0,0,0,1.6-1.09,4.32,4.32,0,0,0,.93-1.51,4.41,4.41,0,0,0,.27-1.78,5.57,5.57,0,0,0-.42-1.86,5.66,5.66,0,0,0-1-1.61A4.66,4.66,0,0,0,107.08,7a4.61,4.61,0,0,0-1.73-.4A4.8,4.8,0,0,0,101.86,8a4.45,4.45,0,0,0-.94,1.51,4.58,4.58,0,0,0-.26,1.78,5.13,5.13,0,0,0,.42,1.86,5.14,5.14,0,0,0,1,1.61,4.51,4.51,0,0,0,1.45,1.07,4.35,4.35,0,0,0,1.73.4A4.44,4.44,0,0,0,107.17,15.89Z"/><path class="cls-3" d="M118.06,1.19,125.63.12l.21,1.53-5.93.84.53,3.78L126,5.49,126.19,7l-5.53.78.73,5.21-1.63.23Z"/><path class="cls-3" d="M134.7,0l7.62.69-.14,1.54-6-.54-.34,3.8,5.56.5-.14,1.54L135.72,7l-.48,5.24-1.64-.15Z"/><path class="cls-3" d="M151.22,2.63l7.45,2.49-.49,1.47-5.89-2-1.14,3.44,5.47,1.83-.49,1.47-5.47-1.83-1.24,3.7,6.18,2.06-.49,1.47-7.74-2.58Z"/><path class="cls-3" d="M167.17,9.12l6.73,4-.79,1.33-5.32-3.2-1.87,3.11,5,3-.79,1.33-5-3-2,3.34,5.58,3.35-.79,1.33-7-4.2Z"/></svg>